<svg width="320" height="44" viewBox="0 0 320 44" fill="none" xmlns="http://www.w3.org/2000/svg">
<path d="M66.1178 35.0076C65.6554 35.3068 64.9891 35.674 64.1188 36.1091C63.2756 36.5171 62.2693 36.8707 61.0998 37.1698C59.9576 37.469 58.7065 37.605 57.3466 37.5778C55.0348 37.5506 52.9678 37.1426 51.1456 36.3539C49.3234 35.5652 47.7595 34.4909 46.454 33.131C45.1758 31.744 44.1967 30.1665 43.5167 28.3987C42.8368 26.6036 42.4968 24.6998 42.4968 22.6872C42.4968 20.457 42.8504 18.4172 43.5575 16.5678C44.2919 14.6912 45.3118 13.0729 46.6172 11.7131C47.9227 10.326 49.4594 9.25171 51.2272 8.49018C53.0222 7.72866 54.9804 7.34789 57.1018 7.34789C58.8969 7.34789 60.5287 7.59267 61.9974 8.08222C63.466 8.57178 64.7035 9.12932 65.7098 9.75486L63.9964 13.7529C63.2076 13.2089 62.2285 12.6922 61.059 12.2026C59.9168 11.7131 58.6385 11.4683 57.2242 11.4683C55.3748 11.4683 53.6614 11.9579 52.0839 12.937C50.5337 13.9161 49.2826 15.2351 48.3307 16.8942C47.406 18.5532 46.9436 20.4162 46.9436 22.4832C46.9436 24.5774 47.3652 26.4541 48.2083 28.1131C49.0786 29.7721 50.3025 31.0776 51.8799 32.0295C53.4574 32.9814 55.3068 33.4574 57.4282 33.4574C58.9512 33.4574 60.2839 33.2262 61.4262 32.7639C62.5957 32.3015 63.5476 31.7712 64.2819 31.1728L66.1178 35.0076Z" fill="#5347B8"/>
<path d="M70.823 22.4832C70.823 20.4434 71.2038 18.5124 71.9653 16.6902C72.754 14.868 73.8419 13.2633 75.229 11.8763C76.6161 10.462 78.2207 9.3605 80.0429 8.57178C81.8652 7.75585 83.8098 7.34789 85.8768 7.34789C87.9438 7.34789 89.8884 7.75585 91.7106 8.57178C93.56 9.3605 95.1783 10.462 96.5653 11.8763C97.9796 13.2633 99.0811 14.868 99.8698 16.6902C100.659 18.5124 101.053 20.4434 101.053 22.4832C101.053 24.5774 100.659 26.5357 99.8698 28.3579C99.0811 30.1801 97.9796 31.7847 96.5653 33.1718C95.1783 34.5589 93.56 35.6468 91.7106 36.4355C89.8884 37.197 87.9438 37.5778 85.8768 37.5778C83.8098 37.5778 81.8652 37.197 80.0429 36.4355C78.2207 35.6468 76.6161 34.5725 75.229 33.2126C73.8419 31.8527 72.754 30.2617 71.9653 28.4395C71.2038 26.59 70.823 24.6046 70.823 22.4832ZM75.229 22.524C75.229 24.5366 75.7049 26.3725 76.6569 28.0315C77.6088 29.6905 78.9006 31.0096 80.5325 31.9887C82.1643 32.9678 83.9866 33.4574 85.9992 33.4574C87.9846 33.4574 89.7796 32.9678 91.3842 31.9887C92.9889 31.0096 94.2672 29.6905 95.2191 28.0315C96.171 26.3725 96.6469 24.523 96.6469 22.4832C96.6469 20.4434 96.1574 18.594 95.1783 16.935C94.2264 15.2487 92.9345 13.9161 91.3026 12.937C89.698 11.9579 87.903 11.4683 85.9176 11.4683C83.905 11.4683 82.0827 11.9714 80.4509 12.9778C78.8462 13.9569 77.568 15.2895 76.6161 16.9758C75.6913 18.6348 75.229 20.4842 75.229 22.524Z" fill="#5347B8"/>
<path d="M107.598 37.2514V7.67426H115.798C118.736 7.67426 121.224 8.12302 123.264 9.02053C125.304 9.89085 126.963 11.0739 128.241 12.5698C129.52 14.0385 130.444 15.6703 131.015 17.4653C131.614 19.2604 131.913 21.0554 131.913 22.8504C131.913 25.0534 131.519 27.0524 130.73 28.8474C129.968 30.6153 128.894 32.1247 127.507 33.3758C126.147 34.6269 124.583 35.5924 122.815 36.2723C121.048 36.9251 119.185 37.2514 117.226 37.2514H107.598ZM111.841 33.131H116.41C118.559 33.131 120.463 32.7231 122.122 31.9071C123.781 31.0912 125.086 29.8945 126.038 28.3171C127.017 26.7396 127.507 24.8222 127.507 22.5648C127.507 20.7154 127.194 19.1244 126.569 17.7917C125.97 16.4318 125.168 15.3167 124.162 14.4464C123.155 13.5489 122.027 12.8826 120.776 12.4474C119.525 12.0122 118.246 11.7947 116.941 11.7947H111.841V33.131Z" fill="#5347B8"/>
<path d="M138.435 7.67426H157.813V11.7947H142.677V20.321H156.181V24.4415H142.677V33.131H158.384V37.2514H138.435V7.67426Z" fill="#5347B8"/>
<path d="M173.204 7.67426C175.271 7.67426 177.107 8.04143 178.711 8.77576C180.316 9.48289 181.567 10.53 182.465 11.9171C183.389 13.2769 183.852 14.9632 183.852 16.9758C183.852 18.662 183.485 20.3074 182.75 21.9121C182.016 23.4895 180.765 24.6998 178.997 25.5429L186.34 37.2514H181.363L174.509 26.6036C174.265 26.6036 174.02 26.6036 173.775 26.6036H169.41V37.2514H165.167V7.67426H173.204ZM173.694 22.4832C175.217 22.4832 176.386 22.1977 177.202 21.6265C178.045 21.0282 178.63 20.321 178.956 19.5051C179.283 18.662 179.446 17.8733 179.446 17.139C179.446 16.4046 179.269 15.6295 178.915 14.8136C178.589 13.9705 178.018 13.2633 177.202 12.6922C176.413 12.0938 175.325 11.7947 173.938 11.7947H169.41V22.4832H173.694Z" fill="#5347B8"/>
<path d="M189.745 22.4832C189.745 20.4434 190.126 18.5124 190.887 16.6902C191.676 14.868 192.764 13.2633 194.151 11.8763C195.538 10.462 197.143 9.3605 198.965 8.57178C200.787 7.75585 202.732 7.34789 204.799 7.34789C206.866 7.34789 208.811 7.75585 210.633 8.57178C212.482 9.3605 214.1 10.462 215.488 11.8763C216.902 13.2633 218.003 14.868 218.792 16.6902C219.581 18.5124 219.975 20.4434 219.975 22.4832C219.975 24.5774 219.581 26.5357 218.792 28.3579C218.003 30.1801 216.902 31.7847 215.488 33.1718C214.1 34.5589 212.482 35.6468 210.633 36.4355C208.811 37.197 206.866 37.5778 204.799 37.5778C202.732 37.5778 200.787 37.197 198.965 36.4355C197.143 35.6468 195.538 34.5725 194.151 33.2126C192.764 31.8527 191.676 30.2617 190.887 28.4395C190.126 26.59 189.745 24.6046 189.745 22.4832ZM194.151 22.524C194.151 24.5366 194.627 26.3725 195.579 28.0315C196.531 29.6905 197.823 31.0096 199.455 31.9887C201.087 32.9678 202.909 33.4574 204.921 33.4574C206.907 33.4574 208.702 32.9678 210.306 31.9887C211.911 31.0096 213.189 29.6905 214.141 28.0315C215.093 26.3725 215.569 24.523 215.569 22.4832C215.569 20.4434 215.08 18.594 214.1 16.935C213.149 15.2487 211.857 13.9161 210.225 12.937C208.62 11.9579 206.825 11.4683 204.84 11.4683C202.827 11.4683 201.005 11.9714 199.373 12.9778C197.768 13.9569 196.49 15.2895 195.538 16.9758C194.614 18.6348 194.151 20.4842 194.151 22.524Z" fill="#5347B8"/>
<path d="M221.788 37.2514L234.802 6.45038H235.046L248.06 37.2514H243.124L240.227 29.8265H229.09L226.03 37.2514H221.788ZM230.559 26.1549H238.759L234.761 15.9559L230.559 26.1549Z" fill="#5347B8"/>
<path d="M253.413 37.2514V7.67426H261.613C264.55 7.67426 267.038 8.12302 269.078 9.02053C271.118 9.89085 272.777 11.0739 274.055 12.5698C275.334 14.0385 276.258 15.6703 276.83 17.4653C277.428 19.2604 277.727 21.0554 277.727 22.8504C277.727 25.0534 277.333 27.0524 276.544 28.8474C275.782 30.6153 274.708 32.1247 273.321 33.3758C271.961 34.6269 270.397 35.5924 268.63 36.2723C266.862 36.9251 264.999 37.2514 263.04 37.2514H253.413ZM257.655 33.131H262.225C264.373 33.131 266.277 32.7231 267.936 31.9071C269.595 31.0912 270.901 29.8945 271.852 28.3171C272.832 26.7396 273.321 24.8222 273.321 22.5648C273.321 20.7154 273.008 19.1244 272.383 17.7917C271.784 16.4318 270.982 15.3167 269.976 14.4464C268.969 13.5489 267.841 12.8826 266.59 12.4474C265.339 12.0122 264.06 11.7947 262.755 11.7947H257.655V33.131Z" fill="#5347B8"/>
<path d="M283.009 34.0874L303.822 22.0159L283.009 9.86108V0.786621L319.89 22.0159L283.009 43.2451V34.0874Z" fill="#62CA9C"/>
<path d="M37.2147 34.0874L16.4017 22.0159L37.2147 9.86108V0.786621L0.334118 22.0159L37.2147 43.2451V34.0874Z" fill="#62CA9C"/>
<line x1="198.757" y1="22.3476" x2="210.68" y2="22.3476" stroke="#4A8CBA" stroke-width="5.7188"/>
<line x1="80.4473" y1="22.3476" x2="92.3708" y2="22.3476" stroke="#4A8CBA" stroke-width="5.7188"/>
</svg>
